<svg xmlns="http://www.w3.org/2000/svg" viewBox="0 0 234 128">
<path d="M169.00 79.00 Q169.00 79.00 171.00 79.00 Q173.00 79.00 173.00 78.50 Q173.00 79.00 173.00 78.50 Q173.00 78.00 169.00 72.50 Q173.00 78.00 169.00 72.50 Q165.00 67.00 165.00 66.00 Q165.00 67.00 165.00 66.00 Q165.00 65.00 169.00 61.00 Q165.00 65.00 169.00 61.00 Q173.00 57.00 173.00 56.50 Q173.00 57.00 173.00 56.50 Q173.00 56.00 169.50 56.00 Q173.00 56.00 169.50 56.00 Q166.00 56.00 162.00 60.00 Q166.00 56.00 162.00 60.00 Q158.00 64.00 157.50 63.50 Q158.00 64.00 157.50 63.50 Q157.00 63.00 157.00 55.00 Q157.00 63.00 157.00 55.00 Q157.00 47.00 154.00 47.00 Q157.00 47.00 154.00 47.00 Q151.00 47.00 151.00 63.00 Q151.00 47.00 151.00 63.00 Q151.00 79.00 154.00 79.00 Q151.00 79.00 154.00 79.00 Q157.00 79.00 157.00 76.00 Q157.00 79.00 157.00 76.00 Q157.00 73.00 158.50 71.50 Q157.00 73.00 158.50 71.50 Q160.00 70.00 163.00 74.50 Q160.00 70.00 163.00 74.50 Q166.00 79.00 171.50 79.00 Q166.00 79.00 171.50 79.00 Q177.00 79.00 177.00 67.50 Q177.00 79.00 177.00 67.50 Q177.00 56.00 179.50 56.00 Q177.00 56.00 179.50 56.00 Q182.00 56.00 182.00 67.50 Q182.00 56.00 182.00 67.50 Q182.00 79.00 180.00 79.00 Q182.00 79.00 180.00 79.00 Q178.00 79.00 183.50 77.00 Q178.00 79.00 183.50 77.00 Q189.00 75.00 189.00 68.50 Q189.00 75.00 189.00 68.50 Q189.00 62.00 188.50 61.50 Q189.00 62.00 188.50 61.50 Q188.00 61.00 187.00 61.00 Q188.00 61.00 187.00 61.00 Q186.00 61.00 186.00 58.50 Q186.00 61.00 186.00 58.50 Q186.00 56.00 187.00 56.00 Q186.00 56.00 187.00 56.00 Q188.00 56.00 188.50 55.50 Q188.00 56.00 188.50 55.50 Q189.00 55.00 189.00 52.50 Q189.00 55.00 189.00 52.50 Q189.00 50.00 191.50 50.00 Q189.00 50.00 191.50 50.00 Q194.00 50.00 194.50 50.50 Q194.00 50.00 194.50 50.50 Q195.00 51.00 195.00 52.50 Q195.00 51.00 195.00 52.50 Q195.00 54.00 194.50 54.50 Q195.00 54.00 194.50 54.50 Q194.00 55.00 194.50 55.50 Q194.00 55.00 194.50 55.50 Q195.00 56.00 197.00 56.00 Q195.00 56.00 197.00 56.00 Q199.00 56.00 199.50 56.50 Q199.00 56.00 199.50 56.50 Q200.00 57.00 200.00 58.50 Q200.00 57.00 200.00 58.50 Q200.00 60.00 199.50 60.50 Q200.00 60.00 199.50 60.50 Q199.00 61.00 197.00 61.00 Q199.00 61.00 197.00 61.00 Q195.00 61.00 194.50 61.50 Q195.00 61.00 194.50 61.50 Q194.00 62.00 194.50 62.50 Q194.00 62.00 194.50 62.50 Q195.00 63.00 194.50 64.00 Q195.00 63.00 194.50 64.00 Q194.00 65.00 194.50 66.00 Q194.00 65.00 194.50 66.00 Q195.00 67.00 194.50 68.00 Q195.00 67.00 194.50 68.00 Q194.00 69.00 194.50 71.50 Q194.00 69.00 194.50 71.50 Q195.00 74.00 195.50 74.50 Q195.00 74.00 195.50 74.50 Q196.00 75.00 198.00 75.00 Q196.00 75.00 198.00 75.00 Q200.00 75.00 200.00 77.00 Q200.00 75.00 200.00 77.00 Q200.00 79.00 196.50 79.00 Q200.00 79.00 196.50 79.00 Q193.00 79.00 191.50 78.00 Q193.00 79.00 191.50 78.00 Q190.00 77.00 185.50 65.00 Q190.00 77.00 185.50 65.00 Q181.00 53.00 179.50 53.00 Q181.00 53.00 179.50 53.00 Q178.00 53.00 177.00 52.00 Q178.00 53.00 177.00 52.00 Q176.00 51.00 176.00 49.50 Q176.00 51.00 176.00 49.50 Q176.00 48.00 176.50 47.50 Q176.00 48.00 176.50 47.50 Q177.00 47.00 179.00 47.00 Q177.00 47.00 179.00 47.00 Q181.00 47.00 182.00 48.00 Q181.00 47.00 182.00 48.00 Q183.00 49.00 182.50 50.50 Q183.00 49.00 182.50 50.50 Q182.00 52.00 163.50 54.00 Q182.00 52.00 163.50 54.00 Q145.00 56.00 145.00 62.00 Q145.00 56.00 145.00 62.00 Q145.00 68.00 145.50 68.50 Q145.00 68.00 145.50 68.50 Q146.00 69.00 145.50 69.50 Q146.00 69.00 145.50 69.50 Q145.00 70.00 145.00 74.50 Q145.00 70.00 145.00 74.50 Q145.00 79.00 142.00 79.00 Q145.00 79.00 142.00 79.00 Q139.00 79.00 138.50 78.00 Q139.00 79.00 138.50 78.00 Q138.00 77.00 137.00 78.00 Q138.00 77.00 137.00 78.00 Q136.00 79.00 133.50 79.50 Q136.00 79.00 133.50 79.50 Q131.00 80.00 130.50 79.50 Q131.00 80.00 130.50 79.50 Q130.00 79.00 129.00 79.00 Q130.00 79.00 129.00 79.00 Q128.00 79.00 126.00 76.50 Q128.00 79.00 126.00 76.50 Q124.00 74.00 124.00 65.00 Q124.00 74.00 124.00 65.00 Q124.00 56.00 127.00 56.00 Q124.00 56.00 127.00 56.00 Q130.00 56.00 130.00 63.50 Q130.00 56.00 130.00 63.50 Q130.00 71.00 131.50 72.50 Q130.00 71.00 131.50 72.50 Q133.00 74.00 134.50 74.00 Q133.00 74.00 134.50 74.00 Q136.00 74.00 137.50 72.50 Q136.00 74.00 137.50 72.50 Q139.00 71.00 139.00 63.50 Q139.00 71.00 139.00 63.50 Q139.00 56.00 141.50 56.00 Q139.00 56.00 141.50 56.00 Q144.00 56.00 131.50 58.00 Q144.00 56.00 131.50 58.00 Q119.00 60.00 119.00 61.50 Q119.00 60.00 119.00 61.50 Q119.00 63.00 116.50 63.00 Q119.00 63.00 116.50 63.00 Q114.00 63.00 113.00 62.00 Q114.00 63.00 113.00 62.00 Q112.00 61.00 110.50 60.50 Q112.00 61.00 110.50 60.50 Q109.00 60.00 108.00 60.50 Q109.00 60.00 108.00 60.50 Q107.00 61.00 106.50 62.00 Q107.00 61.00 106.50 62.00 Q106.00 63.00 107.00 64.00 Q106.00 63.00 107.00 64.00 Q108.00 65.00 112.00 65.50 Q108.00 65.00 112.00 65.50 Q116.00 66.00 118.00 68.00 Q116.00 66.00 118.00 68.00 Q120.00 70.00 120.00 72.00 Q120.00 70.00 120.00 72.00 Q120.00 74.00 118.50 76.00 Q120.00 74.00 118.50 76.00 Q117.00 78.00 114.50 78.50 Q117.00 78.00 114.50 78.50 Q112.00 79.00 111.50 79.50 Q112.00 79.00 111.50 79.50 Q111.00 80.00 109.50 80.00 Q111.00 80.00 109.50 80.00 Q108.00 80.00 107.50 79.50 Q108.00 80.00 107.50 79.50 Q107.00 79.00 105.50 79.00 Q107.00 79.00 105.50 79.00 Q104.00 79.00 102.50 78.00 Q104.00 79.00 102.50 78.00 Q101.00 77.00 100.00 74.50 Q101.00 77.00 100.00 74.50 Q99.00 72.00 102.00 72.00 Q99.00 72.00 102.00 72.00 Q105.00 72.00 106.50 73.50 Q105.00 72.00 106.50 73.50 Q108.00 75.00 110.00 75.00 Q108.00 75.00 110.00 75.00 Q112.00 75.00 113.00 74.00 Q112.00 75.00 113.00 74.00 Q114.00 73.00 112.50 71.50 Q114.00 73.00 112.50 71.50 Q111.00 70.00 109.00 70.00 Q111.00 70.00 109.00 70.00 Q107.00 70.00 104.50 69.00 Q107.00 70.00 104.50 69.00 Q102.00 68.00 101.00 66.50 Q102.00 68.00 101.00 66.50 Q100.00 65.00 100.00 63.00 Q100.00 65.00 100.00 63.00 Q100.00 61.00 101.00 59.50 Q100.00 61.00 101.00 59.50 Q102.00 58.00 104.00 57.00 Q102.00 58.00 104.00 57.00 Q106.00 56.00 110.00 56.00 Q106.00 56.00 110.00 56.00 Q114.00 56.00 115.00 56.50 Q114.00 56.00 115.00 56.50 Q116.00 57.00 117.00 58.00 Q116.00 57.00 117.00 58.00 Q118.00 59.00 102.00 59.00 Q118.00 59.00 102.00 59.00 Q86.00 59.00 86.00 53.50 Q86.00 59.00 86.00 53.50 Q86.00 48.00 82.50 48.00 Q86.00 48.00 82.50 48.00 Q79.00 48.00 78.00 47.00 Q79.00 48.00 78.00 47.00 Q77.00 46.00 77.00 43.50 Q77.00 46.00 77.00 43.50 Q77.00 41.00 76.50 41.00 Q77.00 41.00 76.50 41.00 Q76.00 41.00 76.00 41.50 Q76.00 41.00 76.00 41.50 Q76.00 42.00 75.50 41.50 Q76.00 42.00 75.50 41.50 Q75.00 41.00 68.50 41.00 Q75.00 41.00 68.50 41.00 Q62.00 41.00 61.50 41.50 Q62.00 41.00 61.50 41.50 Q61.00 42.00 61.00 44.00 Q61.00 42.00 61.00 44.00 Q61.00 46.00 58.50 48.50 Q61.00 46.00 58.50 48.50 Q56.00 51.00 53.00 48.00 Q56.00 51.00 53.00 48.00 Q50.00 45.00 49.50 45.00 Q50.00 45.00 49.50 45.00 Q49.00 45.00 48.00 46.00 Q49.00 45.00 48.00 46.00 Q47.00 47.00 50.00 50.00 Q47.00 47.00 50.00 50.00 Q53.00 53.00 53.00 53.50 Q53.00 53.00 53.00 53.50 Q53.00 54.00 52.50 54.50 Q53.00 54.00 52.50 54.50 Q52.00 55.00 48.00 55.00 Q52.00 55.00 48.00 55.00 Q44.00 55.00 43.50 55.50 Q44.00 55.00 43.50 55.50 Q43.00 56.00 43.00 57.50 Q43.00 56.00 43.00 57.50 Q43.00 59.00 42.50 59.00 Q43.00 59.00 42.50 59.00 Q42.00 59.00 42.00 57.00 Q42.00 59.00 42.00 57.00 Q42.00 55.00 38.00 55.00 Q42.00 55.00 38.00 55.00 Q34.00 55.00 34.00 51.00 Q34.00 55.00 34.00 51.00 Q34.00 47.00 40.00 41.00 Q34.00 47.00 40.00 41.00 Q46.00 35.00 53.50 35.00 Q46.00 35.00 53.50 35.00 Q61.00 35.00 61.00 37.50 Q61.00 35.00 61.00 37.50 Q61.00 40.00 63.00 44.00 Q61.00 40.00 63.00 44.00 Q65.00 48.00 66.00 48.00 Q65.00 48.00 66.00 48.00 Q67.00 48.00 67.50 47.50 Q67.00 48.00 67.50 47.50 Q68.00 47.00 68.50 47.50 Q68.00 47.00 68.50 47.50 Q69.00 48.00 71.00 48.00 Q69.00 48.00 71.00 48.00 Q73.00 48.00 73.50 47.50 Q73.00 48.00 73.50 47.50 Q74.00 47.00 74.50 47.50 Q74.00 47.00 74.50 47.50 Q75.00 48.00 75.50 47.50 Q75.00 48.00 75.50 47.50 Q76.00 47.00 73.00 52.00 Q76.00 47.00 73.00 52.00 Q70.00 57.00 71.50 58.00 Q70.00 57.00 71.50 58.00 Q73.00 59.00 69.50 62.50 Q73.00 59.00 69.50 62.50 Q66.00 66.00 66.00 66.50 Q66.00 66.00 66.00 66.50 Q66.00 67.00 71.00 67.00 Q66.00 67.00 71.00 67.00 Q76.00 67.00 77.00 69.50 Q76.00 67.00 77.00 69.50 Q78.00 72.00 82.00 72.00 Q78.00 72.00 82.00 72.00 Q86.00 72.00 86.00 76.00 Q86.00 72.00 86.00 76.00 Q86.00 80.00 80.00 86.00 Q86.00 80.00 80.00 86.00 Q74.00 92.00 66.50 92.00 Q74.00 92.00 66.50 92.00 Q59.00 92.00 59.00 89.50 Q59.00 92.00 59.00 89.50 Q59.00 87.00 58.50 86.50 Q59.00 87.00 58.50 86.50 Q58.00 86.00 50.50 86.00 Q58.00 86.00 50.50 86.00 Q43.00 86.00 43.00 85.50 Q43.00 86.00 43.00 85.50 Q43.00 85.00 42.50 85.00 Q43.00 85.00 42.50 85.00 Q42.00 85.00 42.00 84.50 Q42.00 85.00 42.00 84.50 Q42.00 84.00 42.50 84.00 Q42.00 84.00 42.50 84.00 Q43.00 84.00 43.00 83.00 Q43.00 84.00 43.00 83.00 Q43.00 82.00 42.50 82.00 Q43.00 82.00 42.50 82.00 Q42.00 82.00 42.00 82.50 Q42.00 82.00 42.00 82.50 Q42.00 83.00 42.50 82.00 Q42.00 83.00 42.50 82.00 Q43.00 81.00 42.50 80.50 Q43.00 81.00 42.50 80.50 Q42.00 80.00 38.00 80.00 Q42.00 80.00 38.00 80.00 Q34.00 80.00 34.00 70.00 Q34.00 80.00 34.00 70.00 Q34.00 60.00 43.50 60.00 Q34.00 60.00 43.50 60.00 Q53.00 60.00 53.50 60.50 Q53.00 60.00 53.50 60.50 Q54.00 61.00 50.50 64.50 Q54.00 61.00 50.50 64.50 Q47.00 68.00 48.00 69.00 Q47.00 68.00 48.00 69.00 Q49.00 70.00 49.50 70.00 Q49.00 70.00 49.50 70.00 Q50.00 70.00 53.50 66.50 Q50.00 70.00 53.50 66.50 Q57.00 63.00 60.50 66.50 Q57.00 63.00 60.50 66.50 Q64.00 70.00 59.00 75.00 Q64.00 70.00 59.00 75.00 Q54.00 80.00 49.00 80.00 Q54.00 80.00 49.00 80.00 Q44.00 80.00 51.50 80.00 Q44.00 80.00 51.50 80.00 Q59.00 80.00 59.00 82.50 Q59.00 80.00 59.00 82.50 Q59.00 85.00 59.50 82.00 Q59.00 85.00 59.50 82.00 Q60.00 79.00 62.00 77.50 Q60.00 79.00 62.00 77.50 Q64.00 76.00 67.00 79.00 Q64.00 76.00 67.00 79.00 Q70.00 82.00 70.50 82.00 Q70.00 82.00 70.50 82.00 Q71.00 82.00 72.00 81.00 Q71.00 82.00 72.00 81.00 Q73.00 80.00 70.00 77.00 Q73.00 80.00 70.00 77.00 Q67.00 74.00 67.00 73.00 Q67.00 74.00 67.00 73.00 Q67.00 72.00 71.50 72.00 Q67.00 72.00 71.50 72.00 Q76.00 72.00 77.00 69.50 Q76.00 72.00 77.00 69.50 Q78.00 67.00 82.00 67.00 Q78.00 67.00 82.00 67.00 Q86.00 67.00 86.00 63.50 Q86.00 67.00 86.00 63.50 Q86.00 60.00 77.50 59.00 Q86.00 60.00 77.50 59.00 Q69.00 58.00 66.00 61.00 Q69.00 58.00 66.00 61.00 Q63.00 64.00 59.50 60.50 Q63.00 64.00 59.50 60.50 Q56.00 57.00 60.00 53.00 Q56.00 57.00 60.00 53.00 Q64.00 49.00 116.50 64.00 Z" fill="#2a303d" />
</svg>